<svg width="32" height="32" viewBox="0 0 32 32" fill="none" xmlns="http://www.w3.org/2000/svg">
<g clip-path="url(#clip0_1_2)">
<path d="M30.4455 5.00126V20.1306C30.4455 21.1176 29.6453 21.9179 28.6582 21.9179H3.61948C2.63244 21.9179 1.83221 21.1176 1.83221 20.1306V5.00126C1.83221 4.01421 2.63244 3.21399 3.61948 3.21399H28.6582C29.6453 3.21399 30.4455 4.01421 30.4455 5.00126ZM28.4265 14.2043V5.79649H25.4633V11.2422H21.1065V14.2043H28.4265ZM28.4095 19.3094V16.3473H25.4463V19.3094H28.4095ZM24.0697 8.75862V5.79649H21.1065V8.75862H24.0697ZM23.1675 19.3094V16.3473H8.88838V19.3094H23.1675ZM19.7129 14.2043V11.2422H16.7508V14.2043H19.7129ZM19.7129 8.75862V5.79649H16.7508V8.75862H19.7129ZM15.3561 14.2043V11.2422H12.394V14.2043H15.3561ZM15.3561 8.75862V5.79649H12.394V8.75862H15.3561ZM11.0003 14.2043V11.2422H8.0372V14.2043H11.0003ZM11.0003 8.75862V5.79649H8.0372V8.75862H11.0003ZM6.64355 19.3094V16.3473H3.68042V19.3094H6.64355ZM6.64355 14.2043V11.2422H3.68042V14.2043H6.64355ZM6.64355 8.75862V5.79649H3.68042V8.75862H6.64355Z" fill="#FFB578"/>
<path d="M28.4265 8.75861V14.2043H21.1066V11.2422H25.4633V5.79648H28.4265V7.8385V8.75861Z" fill="#FF4893"/>
<path d="M25.4464 16.3473H28.4095V19.3094H25.4464V16.3473ZM21.1066 5.79648H24.0697V8.75861H21.1066V5.79648Z" fill="#8B87C1"/>
<path d="M8.8884 16.3473H23.1676V19.3094H8.8884V16.3473Z" fill="#FF4893"/>
<path d="M16.7508 11.2422H19.7129V14.2043H16.7508V11.2422ZM16.7508 5.79648H19.7129V8.75861H16.7508V5.79648ZM12.394 11.2422H15.3561V14.2043H12.394V11.2422ZM12.394 5.79648H15.3561V8.75861H12.394V5.79648ZM8.0372 11.2422H11.0003V14.2043H8.0372V11.2422ZM8.0372 5.79648H11.0003V8.75861H8.0372V5.79648ZM3.68042 16.3473H6.64355V19.3094H3.68042V16.3473ZM3.68042 11.2422H6.64355V14.2043H3.68042V11.2422ZM3.68042 5.79648H6.64355V8.75861H3.68042V5.79648Z" fill="#8B87C1"/>
<path d="M28.6582 22.6172H3.6195C2.24832 22.6172 1.1329 21.5017 1.1329 20.1305V5.00125C1.1329 3.63008 2.24842 2.51466 3.6195 2.51466H28.6582C30.0294 2.51466 31.1448 3.63018 31.1448 5.00125V20.1305C31.1448 21.5017 30.0294 22.6172 28.6582 22.6172ZM3.6195 3.91331C3.01958 3.91331 2.53155 4.40134 2.53155 5.00125V20.1305C2.53155 20.7304 3.01958 21.2185 3.6195 21.2185H28.6582C29.2582 21.2185 29.7462 20.7304 29.7462 20.1305V5.00125C29.7462 4.40134 29.2582 3.91331 28.6582 3.91331H3.6195Z" fill="#4F46A3"/>
<path d="M6.64356 9.45794H3.68043C3.5886 9.45794 3.49766 9.43986 3.41281 9.40471C3.32797 9.36957 3.25087 9.31805 3.18594 9.25312C3.121 9.18818 3.06949 9.11109 3.03434 9.02624C2.9992 8.94139 2.98111 8.85046 2.98111 8.75862V5.79649C2.98111 5.70465 2.9992 5.61372 3.03434 5.52887C3.06949 5.44403 3.121 5.36693 3.18594 5.30199C3.25087 5.23706 3.32797 5.18554 3.41281 5.1504C3.49766 5.11526 3.5886 5.09717 3.68043 5.09717H6.64356C6.82903 5.09717 7.00691 5.17085 7.13806 5.30199C7.26921 5.43314 7.34288 5.61102 7.34288 5.79649V8.75862C7.34288 8.94409 7.26921 9.12197 7.13806 9.25312C7.00691 9.38427 6.82903 9.45794 6.64356 9.45794ZM4.37975 8.0593H5.94424V6.49581H4.37975V8.0593ZM24.0697 9.45794H21.1066C20.9211 9.45794 20.7432 9.38427 20.6121 9.25312C20.4809 9.12197 20.4072 8.94409 20.4072 8.75862V5.79649C20.4072 5.61102 20.4809 5.43314 20.6121 5.30199C20.7432 5.17085 20.9211 5.09717 21.1066 5.09717H24.0697C24.2552 5.09717 24.433 5.17085 24.5642 5.30199C24.6953 5.43314 24.769 5.61102 24.769 5.79649V8.75862C24.769 8.94409 24.6953 9.12197 24.5642 9.25312C24.433 9.38427 24.2552 9.45794 24.0697 9.45794ZM21.8059 8.0593H23.3704V6.49581H21.8059V8.0593Z" fill="#4F46A3"/>
<path d="M19.7129 9.45794H16.7508C16.5653 9.45794 16.3874 9.38427 16.2563 9.25312C16.1251 9.12197 16.0515 8.94409 16.0515 8.75862V5.79649C16.0515 5.61102 16.1251 5.43314 16.2563 5.30199C16.3874 5.17085 16.5653 5.09717 16.7508 5.09717H19.7129C19.8047 5.09717 19.8957 5.11526 19.9805 5.1504C20.0654 5.18554 20.1425 5.23706 20.2074 5.30199C20.2723 5.36693 20.3239 5.44403 20.359 5.52887C20.3941 5.61372 20.4122 5.70465 20.4122 5.79649V8.75862C20.4122 8.85046 20.3941 8.94139 20.359 9.02624C20.3239 9.11109 20.2723 9.18818 20.2074 9.25312C20.1425 9.31805 20.0654 9.36957 19.9805 9.40471C19.8957 9.43986 19.8047 9.45794 19.7129 9.45794ZM17.4501 8.0593H19.0136V6.49581H17.4501V8.0593Z" fill="#4F46A3"/>
<path d="M15.3561 9.45794H12.394C12.3022 9.45794 12.2112 9.43986 12.1264 9.40471C12.0415 9.36957 11.9644 9.31805 11.8995 9.25312C11.8346 9.18818 11.783 9.11109 11.7479 9.02624C11.7128 8.94139 11.6947 8.85046 11.6947 8.75862V5.79649C11.6947 5.70465 11.7128 5.61372 11.7479 5.52887C11.783 5.44403 11.8346 5.36693 11.8995 5.30199C11.9644 5.23706 12.0415 5.18554 12.1264 5.1504C12.2112 5.11526 12.3022 5.09717 12.394 5.09717H15.3561C15.5416 5.09717 15.7195 5.17085 15.8506 5.30199C15.9818 5.43314 16.0554 5.61102 16.0554 5.79649V8.75862C16.0554 8.94409 15.9818 9.12197 15.8506 9.25312C15.7195 9.38427 15.5416 9.45794 15.3561 9.45794ZM13.0933 8.0593H14.6568V6.49581H13.0933V8.0593Z" fill="#4F46A3"/>
<path d="M11.0003 9.45794H8.03721C7.85174 9.45794 7.67386 9.38427 7.54272 9.25312C7.41157 9.12197 7.33789 8.94409 7.33789 8.75862V5.79649C7.33789 5.61102 7.41157 5.43314 7.54272 5.30199C7.67386 5.17085 7.85174 5.09717 8.03721 5.09717H11.0003C11.0922 5.09717 11.1831 5.11526 11.268 5.1504C11.3528 5.18554 11.4299 5.23706 11.4948 5.30199C11.5598 5.36693 11.6113 5.44403 11.6464 5.52887C11.6816 5.61372 11.6997 5.70465 11.6997 5.79649V8.75862C11.6997 8.85046 11.6816 8.94139 11.6464 9.02624C11.6113 9.11109 11.5598 9.18818 11.4948 9.25312C11.4299 9.31805 11.3528 9.36957 11.268 9.40471C11.1831 9.43986 11.0922 9.45794 11.0003 9.45794ZM8.73653 8.0593H10.301V6.49581H8.73653V8.0593ZM6.64356 14.9037H3.68043C3.5886 14.9037 3.49766 14.8856 3.41281 14.8504C3.32797 14.8153 3.25087 14.7638 3.18594 14.6988C3.121 14.6339 3.06949 14.5568 3.03434 14.472C2.9992 14.3871 2.98111 14.2962 2.98111 14.2043V11.2422C2.98111 11.1504 2.9992 11.0594 3.03434 10.9746C3.06949 10.8898 3.121 10.8127 3.18594 10.7477C3.25087 10.6828 3.32797 10.6313 3.41281 10.5961C3.49766 10.561 3.5886 10.5429 3.68043 10.5429H6.64356C6.82903 10.5429 7.00691 10.6166 7.13806 10.7477C7.26921 10.8789 7.34288 11.0567 7.34288 11.2422V14.2043C7.34288 14.3898 7.26921 14.5677 7.13806 14.6988C7.00691 14.83 6.82903 14.9037 6.64356 14.9037ZM4.37975 13.505H5.94424V11.9415H4.37975V13.505ZM19.7129 14.9037H16.7508C16.5653 14.9037 16.3874 14.83 16.2563 14.6988C16.1251 14.5677 16.0514 14.3898 16.0514 14.2043V11.2422C16.0514 11.0567 16.1251 10.8789 16.2563 10.7477C16.3874 10.6166 16.5653 10.5429 16.7508 10.5429H19.7129C19.8047 10.5429 19.8957 10.561 19.9805 10.5961C20.0654 10.6313 20.1425 10.6828 20.2074 10.7477C20.2723 10.8127 20.3238 10.8898 20.359 10.9746C20.3941 11.0594 20.4122 11.1504 20.4122 11.2422V14.2043C20.4122 14.2962 20.3941 14.3871 20.359 14.472C20.3238 14.5568 20.2723 14.6339 20.2074 14.6988C20.1425 14.7638 20.0654 14.8153 19.9805 14.8504C19.8957 14.8856 19.8047 14.9037 19.7129 14.9037ZM17.4501 13.505H19.0136V11.9415H17.4501V13.505Z" fill="#4F46A3"/>
<path d="M15.3561 14.9037H12.394C12.3022 14.9037 12.2112 14.8856 12.1264 14.8504C12.0415 14.8153 11.9644 14.7638 11.8995 14.6988C11.8346 14.6339 11.783 14.5568 11.7479 14.472C11.7128 14.3871 11.6947 14.2962 11.6947 14.2043V11.2422C11.6947 11.1504 11.7128 11.0594 11.7479 10.9746C11.783 10.8898 11.8346 10.8127 11.8995 10.7477C11.9644 10.6828 12.0415 10.6313 12.1264 10.5961C12.2112 10.561 12.3022 10.5429 12.394 10.5429H15.3561C15.5416 10.5429 15.7195 10.6166 15.8506 10.7477C15.9818 10.8789 16.0554 11.0567 16.0554 11.2422V14.2043C16.0554 14.3898 15.9818 14.5677 15.8506 14.6988C15.7195 14.83 15.5416 14.9037 15.3561 14.9037ZM13.0933 13.505H14.6568V11.9415H13.0933V13.505Z" fill="#4F46A3"/>
<path d="M11.0003 14.9037H8.03721C7.85174 14.9037 7.67386 14.83 7.54272 14.6988C7.41157 14.5677 7.33789 14.3898 7.33789 14.2043V11.2422C7.33789 11.0567 7.41157 10.8789 7.54272 10.7477C7.67386 10.6166 7.85174 10.5429 8.03721 10.5429H11.0003C11.0922 10.5429 11.1831 10.561 11.268 10.5961C11.3528 10.6313 11.4299 10.6828 11.4948 10.7477C11.5598 10.8127 11.6113 10.8898 11.6464 10.9746C11.6816 11.0594 11.6997 11.1504 11.6997 11.2422V14.2043C11.6997 14.2962 11.6816 14.3871 11.6464 14.472C11.6113 14.5568 11.5598 14.6339 11.4948 14.6988C11.4299 14.7638 11.3528 14.8153 11.268 14.8504C11.1831 14.8856 11.0922 14.9037 11.0003 14.9037ZM8.73653 13.505H10.301V11.9415H8.73653V13.505ZM28.4265 14.9037H21.1066C20.9211 14.9037 20.7432 14.83 20.6121 14.6988C20.4809 14.5677 20.4072 14.3898 20.4072 14.2043V11.2422C20.4072 11.0567 20.4809 10.8789 20.6121 10.7477C20.7432 10.6166 20.9211 10.5429 21.1066 10.5429H24.7639V5.79649C24.7639 5.61102 24.8376 5.43314 24.9687 5.30199C25.0999 5.17085 25.2778 5.09717 25.4632 5.09717H28.4264C28.6118 5.09717 28.7897 5.17085 28.9209 5.30199C29.052 5.43314 29.1257 5.61102 29.1257 5.79649V14.2043C29.1257 14.2962 29.1076 14.3871 29.0725 14.472C29.0374 14.5568 28.9859 14.6339 28.9209 14.6989C28.856 14.7638 28.7789 14.8153 28.6941 14.8505C28.6092 14.8856 28.5183 14.9037 28.4265 14.9037ZM21.8059 13.505H27.7271V6.49581H26.1627V11.2422C26.1627 11.4277 26.089 11.6056 25.9578 11.7367C25.8267 11.8679 25.6488 11.9415 25.4633 11.9415H21.8059V13.505ZM6.64356 20.0087H3.68043C3.5886 20.0087 3.49766 19.9906 3.41281 19.9555C3.32797 19.9203 3.25087 19.8688 3.18594 19.8039C3.121 19.739 3.06949 19.6619 3.03434 19.577C2.9992 19.4922 2.98111 19.4012 2.98111 19.3094V16.3473C2.98111 16.2554 2.9992 16.1645 3.03434 16.0797C3.06949 15.9948 3.121 15.9177 3.18594 15.8528C3.25087 15.7878 3.32797 15.7363 3.41281 15.7012C3.49766 15.666 3.5886 15.6479 3.68043 15.6479H6.64356C6.82903 15.6479 7.00691 15.7216 7.13806 15.8528C7.26921 15.9839 7.34288 16.1618 7.34288 16.3473V19.3094C7.34288 19.4949 7.26921 19.6727 7.13806 19.8039C7.00691 19.935 6.82903 20.0087 6.64356 20.0087ZM4.37975 18.6101H5.94424V17.0466H4.37975V18.6101ZM23.1676 20.0087H8.88839C8.79655 20.0087 8.70561 19.9906 8.62077 19.9555C8.53592 19.9203 8.45883 19.8688 8.39389 19.8039C8.32895 19.739 8.27744 19.6619 8.2423 19.577C8.20715 19.4922 8.18906 19.4012 8.18906 19.3094V16.3473C8.18906 16.2554 8.20715 16.1645 8.2423 16.0797C8.27744 15.9948 8.32895 15.9177 8.39389 15.8528C8.45883 15.7878 8.53592 15.7363 8.62077 15.7012C8.70561 15.666 8.79655 15.6479 8.88839 15.6479H23.1676C23.353 15.6479 23.5309 15.7216 23.6621 15.8528C23.7932 15.9839 23.8669 16.1618 23.8669 16.3473V19.3094C23.8669 19.4949 23.7932 19.6727 23.6621 19.8039C23.5309 19.935 23.353 20.0087 23.1676 20.0087ZM9.58771 18.6101H22.4682V17.0466H9.58771V18.6101ZM28.4095 20.0087H25.4463C25.2609 20.0087 25.083 19.935 24.9519 19.8039C24.8207 19.6727 24.747 19.4949 24.747 19.3094V16.3473C24.747 16.1618 24.8207 15.9839 24.9519 15.8528C25.083 15.7216 25.2609 15.6479 25.4463 15.6479H28.4095C28.5949 15.6479 28.7728 15.7216 28.904 15.8528C29.0351 15.9839 29.1088 16.1618 29.1088 16.3473V19.3094C29.1088 19.4949 29.0351 19.6727 28.904 19.8039C28.7728 19.935 28.5949 20.0087 28.4095 20.0087ZM26.1457 18.6101H27.7102V17.0466H26.1457V18.6101ZM9.62887 29.6104C7.95449 29.6104 6.36793 28.6056 5.71126 26.9581C5.5129 26.4627 5.4109 25.934 5.41076 25.4004C5.41076 23.6654 6.45255 22.1289 8.06498 21.486C8.23643 21.4213 8.42642 21.4265 8.59409 21.5004C8.76176 21.5743 8.89372 21.7111 8.96159 21.8813C9.02946 22.0515 9.02781 22.2416 8.95701 22.4106C8.88621 22.5796 8.75191 22.7141 8.58298 22.7851C7.50563 23.2147 6.8095 24.2412 6.8095 25.4004C6.8095 25.7554 6.87714 26.1052 7.01071 26.4404C7.58485 27.881 9.22446 28.5862 10.6657 28.0117L20.2934 24.1754C20.3788 24.1414 20.4699 24.1245 20.5618 24.1257C20.6536 24.127 20.7443 24.1463 20.8287 24.1826C20.913 24.2189 20.9894 24.2714 21.0535 24.3373C21.1175 24.4031 21.168 24.4809 21.202 24.5662C21.236 24.6515 21.2528 24.7427 21.2516 24.8345C21.2503 24.9264 21.231 25.017 21.1947 25.1014C21.1584 25.1858 21.1059 25.2622 21.0401 25.3262C20.9742 25.3903 20.8965 25.4407 20.8111 25.4747L11.1835 29.311C10.689 29.5086 10.1614 29.6102 9.62887 29.6104Z" fill="#4F46A3"/>
<path d="M25.1338 27.4997C24.9939 27.4997 24.8572 27.4577 24.7413 27.3792C24.6255 27.3006 24.5359 27.1892 24.4841 27.0592C23.9095 25.6182 22.2703 24.9134 20.8301 25.4876C20.658 25.5557 20.4658 25.5528 20.2958 25.4795C20.1258 25.4061 19.9918 25.2684 19.9232 25.0964C19.8546 24.9244 19.8571 24.7323 19.9299 24.5621C20.0028 24.3919 20.1402 24.2575 20.312 24.1885C21.3567 23.7719 22.5012 23.7873 23.5348 24.2319C24.5682 24.6764 25.3666 25.4965 25.7832 26.5412C25.8255 26.6473 25.8412 26.7621 25.8289 26.8757C25.8166 26.9892 25.7767 27.098 25.7126 27.1926C25.6486 27.2871 25.5623 27.3646 25.4614 27.4181C25.3605 27.4716 25.2481 27.4996 25.1338 27.4997Z" fill="#4F46A3"/>
</g>
<defs>
<clipPath id="clip0_1_2">
<rect width="32" height="32" fill="white"/>
</clipPath>
</defs>
</svg>
